<svg width="30" height="29" viewBox="0 0 30 29" fill="none" xmlns="http://www.w3.org/2000/svg">
<path fill-rule="evenodd" clip-rule="evenodd" d="M10.4975 17.4348C9.33653 15.8698 9.11653 16.2978 9.11653 16.2978C9.11653 16.2978 4.86953 17.7308 2.79753 15.1108C0.725534 12.4908 -0.380466 8.76884 1.30253 6.46484C2.98553 4.16084 5.00253 3.36884 6.72453 3.21784C8.44653 3.06584 13.2475 4.19184 15.7815 4.21784C20.8315 4.26884 24.6495 3.94984 24.6495 3.94984L25.5905 8.97184C25.5905 8.97184 20.0025 10.4738 17.8365 12.1538C15.6705 13.8338 14.4305 15.4018 14.7615 17.1178C14.7615 17.1178 13.9435 18.8188 16.3895 22.2318C18.1205 24.6458 18.2665 26.1068 17.5995 26.5048C16.9335 26.9028 15.6495 27.3668 14.2935 25.2678C12.9375 23.1688 10.4975 17.4348 10.4975 17.4348Z" fill="#F6CEA9"/>
<path fill-rule="evenodd" clip-rule="evenodd" d="M27.4798 0.494038C27.4798 0.494038 27.5958 0.758038 27.8138 1.25404C28.0218 1.75404 28.3128 2.49504 28.6118 3.46104C28.9088 4.42804 29.1778 5.62804 29.3758 7.02304C29.3938 7.21904 29.4338 7.32004 29.4338 7.60004C29.4188 7.84604 29.2918 8.11904 29.0218 8.25704C28.5858 8.41004 28.2788 8.48104 27.8858 8.60104C27.1358 8.81904 26.3478 9.04804 25.5248 9.28804C23.8688 9.73004 22.1648 10.372 20.4128 11.241C18.6478 12.093 16.9138 13.138 15.0548 14.266C13.1688 15.343 11.0708 16.22 8.87982 16.83C8.35982 16.978 7.75482 17.172 7.13582 17.206C6.52182 17.239 5.89282 17.208 5.29682 17.042C4.09882 16.735 3.00482 16.07 2.15882 15.185C1.30582 14.326 0.678816 13.172 0.333816 12.061C-0.033184 10.876 -0.080184 9.65104 0.107816 8.45904C0.328816 7.27904 0.806816 6.13704 1.58682 5.22904C1.96382 4.76804 2.41782 4.37204 2.91782 4.05704C3.15982 3.89304 3.43282 3.75704 3.71482 3.63404C4.00282 3.50604 4.20582 3.45404 4.51582 3.35304C6.57582 2.74804 8.67482 2.34804 10.6578 2.22104C11.6508 2.14504 12.6338 2.15904 13.5408 2.15704C14.4588 2.15104 15.3458 2.12304 16.1948 2.07404C17.8938 1.97704 19.4438 1.79604 20.7938 1.53304C22.1288 1.27904 23.3018 0.898038 24.2668 0.652038C25.2308 0.389038 25.9888 0.182038 26.5058 0.0410376C26.6288 -0.0089624 26.8838 -0.0189624 27.0098 0.0440376C27.1558 0.0980376 27.2518 0.181038 27.3188 0.251038C27.3848 0.323038 27.4228 0.386038 27.4518 0.437038C27.4678 0.469038 27.4758 0.485038 27.4758 0.485038L27.4798 0.494038ZM27.0258 0.713038C27.0258 0.713038 27.0178 0.697038 27.0018 0.666038C26.9948 0.658038 26.9788 0.629038 26.9498 0.600038C26.8778 0.545038 26.8258 0.472038 26.6458 0.539038C26.1318 0.688038 25.3768 0.907038 24.4168 1.18604C23.4488 1.44904 22.3128 1.84204 20.9158 2.13404C19.5358 2.42604 17.9608 2.63404 16.2398 2.76004C15.3788 2.82404 14.4818 2.86704 13.5518 2.88804C12.6118 2.90504 11.6828 2.90704 10.7178 2.99604C8.78082 3.15404 6.79382 3.56304 4.75282 4.19704C2.81982 4.70904 1.38482 6.54904 1.07982 8.62104C0.931816 9.65004 1.00282 10.748 1.32282 11.735C1.49782 12.309 1.68182 12.729 1.94882 13.209C2.21682 13.666 2.52282 14.105 2.89382 14.482C3.60882 15.26 4.53682 15.841 5.53882 16.117C6.03882 16.268 6.56082 16.298 7.07382 16.282C7.59082 16.263 8.07382 16.117 8.63682 15.968C10.7898 15.409 12.8208 14.6 14.6748 13.585C16.4968 12.523 18.3338 11.46 20.1238 10.637C21.9068 9.78804 23.7048 9.14904 25.3698 8.73704C26.1968 8.51204 26.9888 8.29704 27.7428 8.09204C28.1038 7.99204 28.4558 7.89504 28.7978 7.80104C28.8648 7.77304 28.9268 7.67704 28.9298 7.56704C28.9358 7.48804 28.8908 7.24104 28.8738 7.09104C28.6838 5.72804 28.3798 4.56004 28.1018 3.61404C27.8238 2.66504 27.5468 1.93804 27.3438 1.44904C27.1338 0.963038 27.0218 0.704038 27.0218 0.704038L27.0258 0.713038Z" fill="black"/>
<path fill-rule="evenodd" clip-rule="evenodd" d="M23.9964 0.97998C23.9964 0.97998 24.5354 2.45398 24.9314 3.96698C25.3484 5.47398 25.5874 7.02498 25.5874 7.02498L25.1074 7.10598C25.1074 7.10598 24.8224 5.59798 24.3614 4.12998C23.9204 2.65598 23.3444 1.23498 23.3444 1.23498L23.9964 0.97998Z" fill="black"/>
<path fill-rule="evenodd" clip-rule="evenodd" d="M6.22882 9.41339L11.2348 8.29639L11.3538 8.71739L6.49982 10.3764L6.22882 9.41339Z" fill="black"/>
<path fill-rule="evenodd" clip-rule="evenodd" d="M5.63733 7.5669C5.63733 7.5669 5.93433 7.4489 6.41233 7.2899C6.88233 7.1319 7.51633 6.9509 8.15733 6.8099C9.43933 6.5189 10.7383 6.4209 10.7383 6.4209L10.7983 6.8539C10.7983 6.8539 9.54333 7.0899 8.34933 7.5029C7.75233 7.7049 7.17033 7.9419 6.74433 8.1389C6.32633 8.3319 6.03833 8.4829 6.03833 8.4829L5.63733 7.5669Z" fill="black"/>
<path fill-rule="evenodd" clip-rule="evenodd" d="M6.82843 11.2684C6.82843 11.2684 7.14243 11.2424 7.61343 11.2024C8.08043 11.1554 8.70243 11.0634 9.31743 10.9294C10.5514 10.6724 11.7264 10.1794 11.7264 10.1794L11.9144 10.5744C11.9144 10.5744 10.7664 11.2114 9.50943 11.6214C8.88543 11.8314 8.24543 11.9994 7.75943 12.1034C7.27543 12.1974 6.95243 12.2604 6.95243 12.2604L6.82843 11.2684Z" fill="black"/>
<path fill-rule="evenodd" clip-rule="evenodd" d="M3.56823 4.23848C3.56823 4.23848 3.50623 4.44748 3.39723 4.81248C3.34023 4.99548 3.27423 5.21648 3.22123 5.46948C3.16723 5.72348 3.08523 6.00548 3.04223 6.32448C2.92523 6.95748 2.85423 7.70648 2.85923 8.50848C2.88123 8.90748 2.88323 9.32448 2.95823 9.73848C3.00523 10.1575 3.11223 10.5715 3.20923 10.9875C3.34123 11.3935 3.46323 11.8035 3.63923 12.1865C3.78923 12.5805 4.00323 12.9385 4.19023 13.2925C4.60123 13.9825 5.04823 14.5885 5.47723 15.0715C5.67823 15.3235 5.89623 15.5245 6.07623 15.7155C6.25523 15.9075 6.42423 16.0615 6.56523 16.1875C6.84423 16.4405 7.00423 16.5855 7.00423 16.5855L6.78723 16.8395C6.78723 16.8395 6.62423 16.6925 6.33723 16.4355C6.19323 16.3085 6.01923 16.1515 5.83423 15.9565C5.64923 15.7615 5.42523 15.5565 5.21623 15.2995C4.77423 14.8065 4.30823 14.1855 3.88023 13.4745C3.68323 13.1095 3.46023 12.7395 3.30223 12.3315C3.11723 11.9355 2.98723 11.5105 2.84823 11.0885C2.74423 10.6575 2.63123 10.2275 2.57923 9.79248C2.49923 9.36248 2.49423 8.93048 2.46923 8.51548C2.45923 7.68448 2.52723 6.90948 2.64423 6.25648C2.68623 5.92748 2.77023 5.63148 2.82523 5.36648C2.88023 5.09948 2.94523 4.87748 3.00023 4.69548C3.10723 4.32948 3.16923 4.12048 3.16923 4.12048L3.56823 4.23848Z" fill="black"/>
<path fill-rule="evenodd" clip-rule="evenodd" d="M17.0323 12.7894C17.0323 12.7894 16.6513 13.2044 16.0983 14.0194C15.8273 14.4274 15.5073 14.9364 15.2513 15.5564C15.0113 16.1534 14.7773 16.9754 15.2013 17.5654C15.7093 18.2164 16.3863 18.8414 17.1003 19.5184C17.8113 20.1984 18.5863 20.9034 19.2543 21.7954C19.5833 22.2304 19.8833 22.7754 20.0243 23.3314C20.1723 23.8934 20.2663 24.4464 20.3443 25.0144C20.4203 25.5794 20.4763 26.1494 20.5183 26.7224C20.5333 27.0264 20.5713 27.2554 20.5583 27.6224C20.5163 28.0164 20.3023 28.3404 20.0143 28.5574C19.8713 28.6654 19.7083 28.7464 19.5373 28.7974C19.4503 28.8234 19.3683 28.8404 19.2723 28.8534L19.0563 28.8754C18.7303 28.8984 18.4273 28.8804 18.1173 28.8244C17.5053 28.7124 16.9153 28.4384 16.4513 28.0144C15.6243 27.1324 14.9843 26.2814 14.3193 25.4094C13.0283 23.6714 11.9503 21.9574 11.2663 20.3144C11.0993 19.9044 10.9723 19.4724 10.8833 19.0924C10.7983 18.7094 10.6993 18.5534 10.4583 18.3254C10.0173 17.9124 9.47833 17.6544 9.04633 17.4654C8.60633 17.2784 8.24333 17.1644 7.99733 17.0904C7.75433 17.0244 7.62433 16.9894 7.62433 16.9894L7.81133 16.2004C7.81133 16.2004 7.95633 16.2414 8.23033 16.3184C8.49533 16.4014 8.88333 16.5274 9.36233 16.7374C9.83733 16.9554 10.4223 17.2244 11.0003 17.7714C11.2883 18.0034 11.5693 18.5214 11.6243 18.9124C11.7093 19.2944 11.8113 19.6544 11.9623 20.0414C12.5753 21.5774 13.6193 23.2944 14.8673 25.0054C15.4893 25.8454 16.1863 26.7694 16.8883 27.5374C17.2533 27.8784 17.7293 28.1084 18.2343 28.2064C18.7213 28.2884 19.3253 28.3154 19.6493 28.0674C19.8213 27.9464 19.9383 27.7474 19.9583 27.5704C19.9713 27.3674 19.9393 27.0264 19.9273 26.7624C19.8903 26.1994 19.8413 25.6394 19.7733 25.0884C19.6263 23.9754 19.4713 22.9214 18.8173 22.1144C18.2073 21.2794 17.4503 20.5694 16.7493 19.8864C16.0463 19.2044 15.3563 18.5594 14.8153 17.8494C14.5113 17.4344 14.4623 16.9244 14.5133 16.5104C14.5603 16.0854 14.6933 15.7164 14.8303 15.3824C15.1143 14.7164 15.4513 14.1934 15.7363 13.7724C16.3163 12.9374 16.7163 12.5094 16.7163 12.5094L17.0323 12.7894Z" fill="black"/>
</svg>
