<svg width="20" height="32" viewBox="0 0 20 32" fill="none" xmlns="http://www.w3.org/2000/svg">
<path fill-rule="evenodd" clip-rule="evenodd" d="M11.6522 13.6759C11.6522 13.6759 12.9732 14.77 12.7632 16.2289C12.5662 17.5962 10.8622 18.6739 9.11519 19.0283C7.36819 19.3817 4.71519 18.9953 4.32419 18.8706C3.93319 18.747 3.31619 19.2405 3.26619 19.8226C3.21619 20.4048 6.86819 30.2431 6.86819 30.2431C6.86819 30.2431 10.2702 31.0066 14.1782 29.083C18.3642 27.0234 18.9532 24.7207 18.9532 24.7207L15.2072 14.0911L14.0562 13.3719L12.7102 13.1082L11.6522 13.6759Z" fill="#B0A7D2"/>
<path fill-rule="evenodd" clip-rule="evenodd" d="M5.09339 22.0329L4.77939 21.3354C4.77939 21.3354 8.70139 21.0552 10.5274 20.404C12.5964 19.6674 14.6084 17.8746 14.6084 17.8746C14.6084 17.8746 16.3114 22.8685 16.4034 23.2188C16.4944 23.5691 14.6884 24.7777 14.1204 25.1249C13.5514 25.4721 11.3034 26.8424 9.43239 26.9331C7.56239 27.0248 6.69139 27.034 6.69139 27.034L5.09339 22.0329Z" fill="white"/>
<mask id="mask0" mask-type="alpha" maskUnits="userSpaceOnUse" x="0" y="0" width="12" height="19">
<path fill-rule="evenodd" clip-rule="evenodd" d="M11.7868 0.0301514H0V18.3068H11.7868V0.0301514Z" fill="white"/>
</mask>
<g mask="url(#mask0)">
<path fill-rule="evenodd" clip-rule="evenodd" d="M11.2688 15.1784L5.54679 0.896333L5.91579 1.22088C5.82179 1.19718 5.69479 1.17142 5.58079 1.15288C5.46479 1.13227 5.34579 1.11476 5.22779 1.10136C4.99079 1.07458 4.75179 1.05603 4.51579 1.055C4.04379 1.05397 3.57179 1.10033 3.14479 1.23839L2.98479 1.29197C2.95079 1.30227 2.87279 1.3373 2.81979 1.35894C2.69379 1.40839 2.60179 1.45682 2.49579 1.50524C2.28279 1.61342 2.07279 1.73088 1.86979 1.86276C1.66679 1.99567 1.46979 2.13888 1.28179 2.29342C1.18679 2.36967 1.09579 2.45003 1.00579 2.53142C0.918786 2.61076 0.825786 2.70245 0.756786 2.77561V2.77664L0.838786 2.37688L5.35679 17.6223L5.16379 17.4378C5.44479 17.5038 5.73979 17.5605 6.02979 17.6078C6.32079 17.6542 6.61379 17.6923 6.90579 17.7202C7.19879 17.7428 7.49179 17.7634 7.78079 17.7572C7.92579 17.7603 8.06779 17.7449 8.21179 17.7387C8.35079 17.7191 8.49579 17.7119 8.62979 17.6779C8.76879 17.6563 8.89479 17.612 9.02379 17.5718C9.14979 17.5203 9.30479 17.4605 9.43279 17.4018C9.69379 17.2864 9.95579 17.1494 10.2058 17.002C10.4548 16.8516 10.6948 16.6857 10.9178 16.5023C11.0298 16.4106 11.3888 16.1077 11.4428 15.879L11.5508 16.0068C11.6958 16.1768 11.6988 16.4302 11.5598 16.6054C11.4468 16.7496 11.3198 16.8712 11.2498 16.9289C11.0028 17.1318 10.7428 17.3122 10.4728 17.4749C10.2008 17.6346 9.92679 17.7789 9.63479 17.9077C9.48879 17.9746 9.36079 18.0231 9.20779 18.0859C9.04879 18.1374 8.88979 18.19 8.73079 18.2157C8.57179 18.2538 8.41479 18.2631 8.25679 18.2848C8.09979 18.292 7.94179 18.3085 7.78679 18.3054C7.47479 18.3126 7.16679 18.2909 6.85979 18.2662C6.55279 18.2384 6.24879 18.1982 5.94679 18.1498C5.64279 18.1014 5.34679 18.0447 5.04079 17.9726L4.89579 17.9386L4.84779 17.7871L0.0697864 2.62621L-0.000213623 2.40573L0.151786 2.22748L0.152786 2.22542C0.256786 2.10488 0.346786 2.01215 0.445786 1.91118C0.544786 1.81433 0.643786 1.71955 0.747786 1.62888C0.952786 1.44755 1.16779 1.27651 1.39079 1.11682C1.61479 0.958151 1.84779 0.813909 2.08979 0.678939C2.21379 0.61506 2.34979 0.540878 2.46079 0.492454C2.52579 0.463606 2.56479 0.441969 2.64979 0.406939L2.85179 0.329666C3.39479 0.130818 3.95379 0.0556056 4.50179 0.0339692C4.77679 0.0236662 5.04979 0.0339692 5.32179 0.053545C5.45879 0.0628177 5.59379 0.0772419 5.73079 0.0947571C5.86979 0.113303 5.99579 0.131848 6.15079 0.163787H6.15179L6.42079 0.226636L6.52179 0.488333L11.6988 13.8369C11.8198 14.1512 11.8318 14.3593 11.6338 14.7848C11.4698 15.1351 11.2688 15.1784 11.2688 15.1784Z" fill="#181716"/>
</g>
<path fill-rule="evenodd" clip-rule="evenodd" d="M7.53071 22.4552C7.93971 22.4067 8.34971 22.3552 8.75871 22.2852C8.96371 22.2522 9.16671 22.2141 9.37371 22.1739C9.58371 22.1306 9.79171 22.0863 9.98571 22.0358C10.1927 21.9864 10.4037 21.9204 10.6067 21.8535C10.8107 21.7824 11.0107 21.7061 11.2057 21.6206C11.4027 21.5392 11.5937 21.4455 11.7827 21.3507C11.9717 21.2549 12.1577 21.1549 12.3407 21.0498C12.7067 20.8417 13.0637 20.6192 13.4117 20.3843C13.5857 20.2668 13.7577 20.1463 13.9257 20.0206C13.9497 20.003 13.9737 19.9845 13.9977 19.967C13.9977 19.967 15.1547 23.0218 15.2547 23.3474C15.3307 23.5978 15.3217 23.8028 15.3217 23.8028C15.3467 23.8327 15.4627 23.8183 15.6327 23.6565C15.7907 23.5061 15.9097 23.2011 15.8247 22.9466L14.5617 19.1613L14.3837 18.6317L13.9337 18.9758V18.9769C13.7837 19.0923 13.6177 19.2128 13.4547 19.3261L12.9577 19.6641C12.6237 19.8846 12.2827 20.0927 11.9367 20.2864C11.5907 20.4832 11.2347 20.6532 10.8777 20.8108C10.6987 20.8891 10.5177 20.9592 10.3367 21.023C10.1537 21.0849 9.97571 21.1426 9.78771 21.1879C9.58771 21.2404 9.39671 21.2817 9.20871 21.3218C9.01671 21.36 8.81971 21.3981 8.62371 21.431C8.23171 21.5001 7.83371 21.5516 7.43671 21.601C7.03871 21.6505 6.63771 21.6763 6.23771 21.7134C5.83771 21.7484 5.43271 21.7731 5.03771 21.7875L4.47971 21.8081L6.54871 27.4171L6.76171 27.4181C7.13971 27.4171 7.49371 27.4068 7.86471 27.3883C8.23371 27.3697 8.59671 27.346 8.96671 27.31C9.33571 27.276 9.70171 27.2317 10.0707 27.174C10.4397 27.1173 10.8057 27.0431 11.1737 26.9514C11.3567 26.9009 11.5397 26.8525 11.7217 26.7866C11.9047 26.7227 12.0857 26.6526 12.2537 26.5733C12.6067 26.4105 12.9327 26.2302 13.2567 26.0355C13.7417 25.7418 14.1187 25.5193 14.6647 25.0763C14.9027 24.8836 14.9637 24.5415 14.7837 24.2912L14.7567 24.2582C14.2727 24.7723 13.6087 25.1834 12.9837 25.543C12.6727 25.7212 12.3487 25.8881 12.0317 26.0252C11.8657 26.0994 11.7027 26.156 11.5387 26.2096C11.3747 26.2642 11.2027 26.3054 11.0317 26.3487C10.6867 26.426 10.3357 26.4888 9.98071 26.5341C9.62571 26.5815 9.26771 26.6155 8.90771 26.6403C8.54871 26.667 8.18771 26.6804 7.82771 26.6907C7.54971 26.698 7.27071 26.699 6.99371 26.6959L5.61171 22.6138C5.84171 22.6015 6.07171 22.587 6.30171 22.5706C6.71171 22.5407 7.12171 22.5026 7.53071 22.4552Z" fill="#181716"/>
<path fill-rule="evenodd" clip-rule="evenodd" d="M3.9848 17.1871C3.9848 17.1871 3.8038 17.2015 3.5388 17.3715C3.2638 17.5487 2.8688 17.831 2.4948 18.2813C2.4058 18.3895 2.3068 18.5286 2.2398 18.6419L2.2048 18.7037C2.1948 18.7223 2.1938 18.7284 2.1868 18.7418C2.1778 18.7624 2.1618 18.7985 2.1508 18.8284C2.1278 18.8902 2.1088 18.9561 2.0948 19.0241C2.0658 19.1601 2.0608 19.3075 2.0858 19.4569C2.1038 19.5743 2.1898 19.8298 2.2518 20.0493C2.5258 20.9539 2.8168 21.9801 3.1378 23.0979C3.4618 24.2148 3.8128 25.4244 4.1838 26.704C4.3738 27.3418 4.5678 27.997 4.7678 28.6667C4.8688 28.9995 4.9718 29.3364 5.0758 29.6764C5.1808 30.0051 5.2948 30.376 5.4018 30.6542L5.4208 30.7057C5.4078 30.683 5.4568 30.7747 5.3938 30.6583L5.4028 30.6727L5.4208 30.7006L5.4398 30.7294C5.4448 30.7346 5.4388 30.7191 5.4378 30.716C5.4318 30.7047 5.4238 30.6944 5.4138 30.6882C5.4138 30.6882 5.4438 30.7057 5.4568 30.717L5.5358 30.7572C5.6568 30.8108 5.8058 30.8592 5.9628 30.8984C6.2768 30.9777 6.6208 31.0272 6.9668 31.0632C7.6628 31.1343 8.3838 31.1426 9.1068 31.1137C10.5508 31.0447 12.0328 30.8273 13.3868 30.3224C13.4728 30.2926 13.5538 30.2555 13.6368 30.2225L13.7548 30.173L13.8838 30.1133C14.0528 30.0329 14.2338 29.9567 14.3938 29.8722C14.7178 29.7115 15.0428 29.5353 15.3628 29.3509C15.9998 28.9789 16.6128 28.5647 17.1818 28.1104C17.7438 27.657 18.2948 27.1584 18.6718 26.6195C18.7188 26.5526 18.7508 26.4876 18.7918 26.4227C18.8118 26.3898 18.8168 26.363 18.8308 26.3331C18.8388 26.3084 18.8648 26.2682 18.8598 26.2558C18.8608 26.2383 18.8658 26.2229 18.8728 26.2064C18.8738 26.195 18.8758 26.2909 18.8738 26.2414L18.8718 26.2239L18.8668 26.1899L18.8578 26.1209C18.8488 26.0199 18.8248 25.9581 18.8068 25.8829C18.7758 25.7489 18.7248 25.5676 18.6758 25.3945C18.6288 25.2224 18.5748 25.0493 18.5228 24.8763C18.1018 23.4967 17.6488 22.1655 17.2218 20.9065C16.7898 19.6464 16.3808 18.4564 16.0038 17.3571C15.8138 16.808 15.6308 16.2825 15.4578 15.7818C15.3698 15.5324 15.2848 15.2883 15.2018 15.0513C15.1138 14.8071 15.0548 14.5928 14.9548 14.4383C14.8558 14.2734 14.7288 14.1343 14.5868 14.0282C14.5148 13.9756 14.4408 13.9303 14.3638 13.8932C14.2858 13.8541 14.2158 13.8314 14.1138 13.7964C13.7668 13.6872 13.4198 13.6274 13.1108 13.6016C12.4858 13.5522 11.9868 13.6192 11.6518 13.6758C11.4848 13.7078 11.3558 13.7335 11.2708 13.7552C11.1838 13.7758 11.1398 13.7861 11.1398 13.7861C11.0958 13.6161 11.0528 13.445 11.0088 13.274C11.0548 13.2616 11.1008 13.2493 11.1468 13.2369C11.2378 13.2112 11.3748 13.1782 11.5548 13.138C11.9138 13.0659 12.4518 12.9742 13.1488 13.0072C13.4978 13.0247 13.8788 13.0793 14.2958 13.2029C14.3828 13.2307 14.5078 13.2689 14.6168 13.3214C14.7288 13.3729 14.8378 13.4358 14.9428 13.51C15.1518 13.6593 15.3388 13.8561 15.4868 14.0921C15.5238 14.1508 15.5568 14.2116 15.5898 14.2755L15.6378 14.3795L15.6718 14.465C15.7158 14.5815 15.7598 14.7 15.8048 14.8205C15.8918 15.0564 15.9818 15.2986 16.0738 15.5469C16.2578 16.0445 16.4498 16.5669 16.6508 17.1129C17.0518 18.205 17.4838 19.3889 17.9248 20.6479C18.3658 21.908 18.8318 23.2329 19.2738 24.631C19.3288 24.8062 19.3858 24.9803 19.4368 25.1616C19.4888 25.3409 19.5428 25.513 19.5948 25.7386C19.6188 25.8437 19.6488 25.9591 19.6568 26.0446L19.6668 26.1136L19.6718 26.1476L19.6738 26.1652C19.6728 26.1281 19.6788 26.2352 19.6768 26.2352C19.6678 26.3104 19.6558 26.3856 19.6408 26.4609C19.6278 26.5423 19.5998 26.5824 19.5788 26.6453C19.5548 26.6999 19.5338 26.7638 19.5068 26.8112C19.4518 26.9049 19.3998 27.0069 19.3408 27.0924C18.8678 27.7776 18.2938 28.2886 17.6968 28.7863C17.0958 29.2767 16.4568 29.7187 15.7898 30.1174C15.4558 30.3142 15.1158 30.5038 14.7628 30.6841C14.5868 30.7778 14.4188 30.85 14.2458 30.9344L14.1178 30.9952L13.9738 31.0581C13.8818 31.0962 13.7908 31.1384 13.6968 31.1724C12.2128 31.7422 10.6698 31.9781 9.1508 32.0688C8.3898 32.108 7.6338 32.108 6.8778 32.04C6.4998 32.0039 6.1238 31.9555 5.7388 31.8638C5.5458 31.8164 5.3508 31.7597 5.1438 31.669L4.9828 31.5887C4.9218 31.5485 4.8748 31.5217 4.8038 31.4661C4.7608 31.429 4.7188 31.3878 4.6808 31.3455C4.6638 31.326 4.6398 31.2971 4.6308 31.2847L4.6118 31.2569L4.5928 31.2281L4.5838 31.2147C4.5128 31.089 4.5598 31.1683 4.5418 31.1353L4.5108 31.0601C4.3538 30.6624 4.2578 30.343 4.1408 29.9927C4.0318 29.6507 3.9248 29.3117 3.8178 28.9769C3.6118 28.3072 3.4088 27.6509 3.2128 27.0131C2.8278 25.7345 2.4638 24.527 2.1288 23.4112C1.7958 22.2953 1.4898 21.2733 1.2378 20.3615C1.1768 20.1245 1.1048 19.9473 1.0498 19.6279C1.0058 19.3404 1.0188 19.054 1.0778 18.7903C1.1068 18.6573 1.1468 18.5306 1.1998 18.4121C1.2258 18.3513 1.2508 18.2998 1.2848 18.236L1.3348 18.1484L1.3728 18.0886C1.5048 17.8877 1.6218 17.7445 1.7518 17.5982C2.3118 16.9893 3.3608 16.332 3.9848 17.1871Z" fill="#181716"/>
</svg>
